<?xml version="1.0" encoding="UTF-8"?>
<svg width="14px" height="14px" viewBox="0 0 14 14" version="1.1" xmlns="http://www.w3.org/2000/svg" xmlns:xlink="http://www.w3.org/1999/xlink">
    <!-- Generator: Sketch 51.2 (57519) - http://www.bohemiancoding.com/sketch -->
    <title>Shape</title>
    <desc>Created with Sketch.</desc>
    <defs></defs>
    <g id="Latest" stroke="none" stroke-width="1" fill="none" fill-rule="evenodd">
        <g id="3.2.-Zoltu-App.-Total-Price-Tooltip-Desktop" transform="translate(-685.000000, -242.000000)" fill="#FFFFFF" fill-rule="nonzero">
            <g id="input-copy-3" transform="translate(335.000000, 193.000000)">
                <g id="input">
                    <g id="risk-level" transform="translate(0.000000, 45.000000)">
                        <g id="high_priority" transform="translate(350.000000, 4.000000)">
                            <path d="M13.7174417,6.31746898 L7.68253102,0.282558298 C7.30578663,-0.0941860994 6.69421337,-0.0941860994 6.31746898,0.282558298 L0.282558298,6.31746898 C-0.0941860994,6.69421337 -0.0941860994,7.30578663 0.282558298,7.68253102 L6.31746898,13.7174417 C6.69421337,14.0941861 7.30578663,14.0941861 7.68253102,13.7174417 L13.7174417,7.68253102 C14.0941861,7.30578663 14.0941861,6.69484977 13.7174417,6.31746898 Z M7.63607437,10.182281 L6.36328924,10.182281 L6.36328924,8.90949589 L7.63607437,8.90949589 L7.63607437,10.182281 Z M7.63607437,7.63671076 L6.36328924,7.63671076 L6.36328924,3.81835538 L7.63607437,3.81835538 L7.63607437,7.63671076 Z" id="Shape"></path>
                        </g>
                    </g>
                </g>
            </g>
        </g>
    </g>
</svg>